Coordinates
nRows=8
nColumns=34

# SIMM Motion File Header:
name Coordinates
datacolumns 34
datarows 8
otherdata 1
range 0.44500000000000006000 0.45199999999999996000

Units are S.I. units (second, meters, Newtons, ...)
Angles are in degrees.

endheader
time	pelvis_tz	pelvis_tx	pelvis_ty	pelvis_tilt	pelvis_list	pelvis_rotation	hip_flexion_r	hip_adduction_r	hip_rotation_r	knee_r_tx	knee_r_ty	knee_angle_r	tib_pat_r_tx	tib_pat_r_ty	tib_pat_r_r1	ankle_angle_r	subtalar_angle_r	mtp_angle_r	hip_flexion_l	hip_adduction_l	hip_rotation_l	knee_l_tx	knee_l_ty	knee_angle_l	tib_pat_l_tx	tib_pat_l_ty	tib_pat_l_r1	ankle_angle_l	subtalar_angle_l	mtp_angle_l	lumbar_extension	lumbar_bending	lumbar_rotation
      0.44500000000000006000	     -0.26111473740849611000	      0.27815826746935107000	      0.91168728094974572000	     -1.31597468168455230000	      0.01906567418771559800	     -2.52641198782712890000	     -8.92160453609275270000	      1.89285398949716080000	     16.60424375002113400000	     -0.00419636266102074980	     -0.41344444474389358000	     -4.18179639355163510000	      0.04613384673222956100	     -0.02114363263513174800	      4.49397193722239500000	     15.83259609371494000000	     -0.00000000000000411375	      0.00000000000002962008	     23.79548170830486200000	      0.83607426440797883000	      5.84899340029275110000	     -0.00118271010244617940	     -0.41490618803703483000	    -19.35864270863631000000	      0.04396909763011170500	     -0.02051020003069616000	     13.42601404149868700000	      3.50575658074908560000	     -0.00000000000005704147	     -0.00000000000005899613	     -4.99253784104792510000	      4.46582494841859660000	      2.70087127809606200000
      0.44600000000000006000	     -0.26118932525628996000	      0.27909719272280570000	      0.91146671704826776000	     -1.31135518369490800000	     -0.03410422962521982000	     -2.52722924330523700000	     -8.97996233681220170000	      1.94927808853279490000	     16.62444632688248400000	     -0.00419159347258837860	     -0.41344721754155922000	     -4.21652469729499750000	      0.04612981286690740600	     -0.02114225067545728900	      4.52731024934104640000	     15.89505697294581100000	     -0.00000000000000423001	      0.00000000000002979583	     23.78578809226118200000	      0.78310785233086888000	      5.94903978064662820000	     -0.00125520179678351990	     -0.41486624278492634000	    -19.02592487226126700000	      0.04401658415217385400	     -0.02052145364252235700	     13.32677308633947900000	      3.46442111964097420000	     -0.00000000000005784486	     -0.00000000000005927996	     -5.01745226706906330000	      4.53296876476746750000	      2.69890344854595470000
      0.44700000000000006000	     -0.26126243587135323000	      0.28003820075877062000	      0.91124476819414346000	     -1.30628432479226800000	     -0.08661924130711942700	     -2.52881831637126190000	     -9.03809282317067010000	      2.00519972655918990000	     16.64514628478454500000	     -0.00418662044210225610	     -0.41345010066029309000	     -4.25257868616195100000	      0.04612557967253948200	     -0.02114080129883260200	      4.56177622757866170000	     15.95655937183130000000	     -0.00000000000000434900	      0.00000000000002999180	     23.77491319292074900000	      0.73003963930039117000	      6.04772625078955880000	     -0.00132814412455599120	     -0.41482752100226361000	    -18.69596523053155200000	      0.04406297245222187700	     -0.02053255195774983700	     13.22253753963244300000	      3.42196809160666190000	     -0.00000000000005866385	     -0.00000000000005956559	     -5.04276371539802160000	      4.59899409155923070000	      2.69753617879938410000
      0.44800000000000006000	     -0.26133505407550633000	      0.28097990305557224000	      0.91102235768913720000	     -1.30106301225196350000	     -0.13891595561200773000	     -2.53066466196659160000	     -9.09614753807547770000	      2.06095387758250540000	     16.66601203636683700000	     -0.00418157946426488300	     -0.41345302055271632000	     -4.28907457007010070000	      0.04612128003515630900	     -0.02113932944989117100	      4.59661809452259720000	     16.01774227726832900000	     -0.00000000000000446889	      0.00000000000003019451	     23.76364453248139700000	      0.67693749261879088000	      6.14595941752884120000	     -0.00140123666347350590	     -0.41478920704274946000	    -18.36692498701694000000	      0.04410899467826518600	     -0.02054359850744441600	     13.11663712907613400000	      3.37914254126361730000	     -0.00000000000005948804	     -0.00000000000005985183	     -5.06820750449625290000	      4.66464658849862610000	      2.69636909565399210000
      0.44899999999999995000	     -0.26140722458988003000	      0.28192223698872282000	      0.91079951910057111000	     -1.29574173865569550000	     -0.19101228740704299000	     -2.53273920111273560000	     -9.15408761562682120000	      2.11655923157851290000	     16.68700701680634100000	     -0.00417647276609418430	     -0.41345597582481636000	     -4.32599430126575340000	      0.04611691586459219100	     -0.02113783580343826800	      4.63181714251890850000	     16.07861944497565100000	     -0.00000000000000458576	      0.00000000000003038300	     23.75208326461607200000	      0.62380920536994144000	      6.24373958072349570000	     -0.00147434647732831430	     -0.41475125140587155000	    -18.03882587405791000000	      0.04415472772627321300	     -0.02055461440557842400	     13.00923582630438900000	      3.33601306480855890000	     -0.00000000000006032728	     -0.00000000000006011715	     -5.09372766984842600000	      4.72995666617721170000	      2.69538281089969530000
      0.44999999999999996000	     -0.26147805203491536000	      0.28286646583092062000	      0.91057539626132555000	     -1.29012058189153560000	     -0.24250747167254452000	     -2.53549832091131890000	     -9.21168378111780410000	      2.17171819449262320000	     16.70838968381747600000	     -0.00417116890692350270	     -0.41345903723594679000	     -4.36418557432392880000	      0.04611235809448525200	     -0.02113627676445093900	      4.66808773367235830000	     16.13857939949388500000	     -0.00000000000000469352	      0.00000000000003052886	     23.73964417447282200000	      0.57060249641932093000	      6.34016073328431680000	     -0.00154750811599503600	     -0.41471437073690232000	    -17.71355015276546400000	      0.04419959324017539600	     -0.02056553834903072600	     12.89733184688630300000	      3.29197181001744350000	     -0.00000000000006121165	     -0.00000000000006031971	     -5.11947696396243400000	      4.79423948607339860000	      2.69493892131868010000
      0.45099999999999996000	     -0.26154843165323821000	      0.28381133817724885000	      0.91035085122040860000	     -1.28442071316530760000	     -0.29378245650685342000	     -2.53848078540311000000	     -9.26913638713579150000	      2.22671290818389660000	     16.72988561132353500000	     -0.00416579468725359650	     -0.41346213629973594000	     -4.40282637518641180000	      0.04610773093120872800	     -0.02113469432116764700	      4.70473313022439310000	     16.19841022475523200000	     -0.00000000000000480054	      0.00000000000003065747	     23.72695514718799400000	      0.51739382134408574000	      6.43609100264108580000	     -0.00162057670643112440	     -0.41467783788829504000	    -17.38931662344170400000	      0.04424420887459040700	     -0.02057644661472268100	     12.78393654457940100000	      3.24765151607388840000	     -0.00000000000006209497	     -0.00000000000006052811	     -5.14527485174276840000	      4.85815379122294910000	      2.69467379075040410000
      0.45199999999999996000	     -0.26161746779142336000	      0.28475814103596864000	      0.91012503957447699000	     -1.27848470855287450000	     -0.34439684304758372000	     -2.54213328397452540000	     -9.32615831473479060000	      2.28121487420666070000	     16.75172132031436000000	     -0.00416020938608601620	     -0.41346534832150122000	     -4.44281575946181830000	      0.04610289558842348100	     -0.02113304166499645900	      4.74250294297218480000	     16.25785366224590000000	     -0.00000000000000490536	      0.00000000000003073428	     23.71351630847843600000	      0.46417924789500664000	      6.53054862238569460000	     -0.00169336615217531230	     -0.41464234850077358000	    -17.06820967002400700000	      0.04428807487054391100	     -0.02058730784713359200	     12.66606727360604400000	      3.20249410467301310000	     -0.00000000000006297511	     -0.00000000000006075404	     -5.17121852052208200000	      4.92096255213258700000	      2.69494493722034620000
